<svg xmlns="http://www.w3.org/2000/svg" width="200" height="200" viewBox="0 0 200 200">
    <path fill="#333" d="M95.44 114.584h-3.727v-9.887h3.726v-30.02l-27.155 23.07L41.13 74.604v30.307h3.797v9.888H27.804v-9.887h3.44V67.08h-3.44v-9.887h17.124v7.595l23.357 19.56 24.002-19.99v-7.165h17.052v9.888h-4.012v37.69h3.583v9.814h-3.584M175.804 150.39c-3.23.59-6.19.824-8.88.824h-27.99c-5.652 0-11.304-1.06-16.686-3.064l-.18-.117h-.18c-3.677-2.122-6.458-4.832-8.52-8.485-2.513-4.36-3.77-9.546-3.77-15.674V84.276c0-6.01 1.257-11.195 3.68-15.438 1.973-3.535 4.753-6.364 8.342-8.367l.36-.117.268-.118c6.638-2.003 13.636-3.064 20.992-3.064h18.12c6.82 0 12.56.59 17.314 1.77v-1.887h13.456V85.22h-13.456v-8.722c-3.23-2.003-8.97-3.064-17.313-3.064h-18.03c-4.755.118-9.42.707-14.085 1.886-2.422.942-4.126 2.24-5.203 3.89-1.076 1.53-1.704 3.535-1.704 6.01l-.09 37.828c0 2.593.538 4.597 1.525 6.247 1.077 1.65 2.69 2.945 4.934 4.006 3.5 1.18 6.907 1.77 10.316 1.77h28.348c1.705 0 3.5-.236 5.383-.472 3.41-.708 5.92-1.77 7.535-3.418.808-.825 1.525-1.532 1.975-2.122l4.126-4.595 8.61 11.43-3.946 4.95c-.448.472-.987 1.18-1.705 2.12-3.05 3.655-7.537 6.247-13.546 7.426zM5.398 117.148h104v6h-104z" id="underline"/>
    <g>
        <path fill="#FFF" d="M95.44 110.45h-3.727v-9.888h3.726v-30.02l-27.155 23.07L41.13 70.47v30.307h3.797v9.888H27.804v-9.888h3.44v-37.83h-3.44V53.06h17.124v7.595l23.357 19.56 24.002-19.99V53.06h17.052v9.888h-4.012v37.687h3.583v9.816h-3.584M175.804 146.255c-3.23.59-6.19.825-8.88.825h-27.99c-5.652 0-11.304-1.06-16.686-3.064l-.18-.118h-.18c-3.677-2.12-6.458-4.83-8.52-8.485-2.513-4.36-3.77-9.545-3.77-15.673V80.143c0-6.01 1.257-11.196 3.68-15.438 1.973-3.535 4.753-6.364 8.342-8.367l.36-.118.268-.118c6.638-2.003 13.636-3.064 20.992-3.064h18.12c6.82 0 12.56.59 17.314 1.768V52.92h13.456v28.165h-13.456v-8.72c-3.23-2.003-8.97-3.064-17.313-3.064h-18.03c-4.755.12-9.42.708-14.085 1.886-2.422.943-4.126 2.24-5.203 3.89-1.076 1.53-1.704 3.534-1.704 6.01l-.09 37.828c0 2.593.538 4.596 1.525 6.246 1.077 1.65 2.69 2.946 4.934 4.007 3.5 1.18 6.907 1.768 10.316 1.768h28.348c1.705 0 3.5-.235 5.383-.472 3.41-.707 5.92-1.768 7.535-3.417.808-.825 1.525-1.532 1.975-2.12l4.126-4.597 8.61 11.43-3.946 4.95c-.448.47-.987 1.178-1.705 2.12-3.05 3.653-7.537 6.246-13.546 7.425zM5.398 112.148h104v6h-104z"/>
    </g>
</svg>
